# xmcd CD database file
#
# Track frame offsets:
#	150
#	27148
#	48543
#	73515
#	84468
#	101443
#	118754
#	136295
#	149381
#	165625
#	182661
#	201100
#	218176
#	240904
#	259458
#
# Disc length: 3641 seconds
#
# Revision: 0
# Processed by: cddbd v1.5.2PL0 Copyright (c) Steve Scherf et al.
# Submitted via: CDex 1.51
#
DISCID=d50e370f
DTITLE=Christian Anders - Der goldene Schlagerclub
DYEAR=1900
DGENRE=Schlager dt.
TTITLE0=Geh nicht vorbei
TTITLE1=Es fährt ein Zug nach nirgendwo
TTITLE2=Nie mehr allein
TTITLE3=In den Augen der andern
TTITLE4=Der Brief
TTITLE5=Ruby
TTITLE6=Low Dreamer
TTITLE7=Verliebt in den Leherer
TTITLE8=Donnerstag, der 13. Mai
TTITLE9=Dennn ich lieb dich so sehr
TTITLE10=Tu's nicht Jenny
TTITLE11=Sechs Uhr früh in den Straßen
TTITLE12=Das Schiff der großen Illusionen
TTITLE13=Der letzte Tanz
TTITLE14=Einsammkeit hat viele Namen
EXTD=
EXTT0=
EXTT1=
EXTT2=
EXTT3=
EXTT4=
EXTT5=
EXTT6=
EXTT7=
EXTT8=
EXTT9=
EXTT10=
EXTT11=
EXTT12=
EXTT13=
EXTT14=
PLAYORDER=
